<svg width="27" height="27" viewBox="0 0 27 27" fill="none" xmlns="http://www.w3.org/2000/svg">
<path d="M13.6089 3.24177H26.3291V6.75506H18.1013V11.9962H24.6177V15.3778H18.0931V23.0544H13.6089V3.24177Z" fill="white"/>
<path d="M5.93228 9.72532C5.93228 10.9677 5.93228 12.4816 4.22089 13.0987C5.97342 13.6994 5.93228 14.9747 5.93228 16.3076V21.2443C5.93228 22.1823 6.31076 22.75 6.98544 22.8899C7.13369 22.9399 7.28988 22.9622 7.4462 22.9557H9.09177V26.2468H6.37658C3.48038 26.2468 1.88418 24.6013 1.88418 21.5487V15.707C1.86364 15.4071 1.7314 15.1257 1.51357 14.9186C1.29574 14.7114 1.00816 14.5934 0.707595 14.588H0V11.7H0.707595C1.01415 11.696 1.30739 11.574 1.52646 11.3596C1.74553 11.1451 1.87363 10.8545 1.88418 10.5481V4.62405C1.88418 1.62089 3.44747 0 6.37658 0H9.11646V3.24177H7.47089C7.31437 3.24222 7.1589 3.26721 7.01013 3.31582C6.33544 3.48861 5.95696 4.0481 5.95696 4.96139L5.93228 9.72532Z" fill="white"/>
</svg>
