<svg width="183" height="32" viewBox="0 0 183 32" fill="none" xmlns="http://www.w3.org/2000/svg">
<g clip-path="url(#clip0_712_8474)">
<path d="M51.8445 17.8729H46.2952L44.9042 21.7532H42.6007L47.8957 7.36804H50.3487L55.6138 21.7532H53.2206L51.8445 17.8729ZM46.8636 16.1467H51.2761L49.1073 9.83201L46.8636 16.1467Z" fill="#14142B"/>
<path d="M66.9526 16.5166C66.9526 19.7772 65.1877 21.8723 62.4654 21.8723C61.7875 21.9072 61.1134 21.7527 60.5206 21.4264C59.9279 21.1001 59.4406 20.6154 59.1148 20.0281V25.2362H56.946V11.2641H59.055V13.0051C59.401 12.4254 59.8989 11.9482 60.4963 11.6238C61.0937 11.2992 61.7687 11.1393 62.4503 11.1609C65.1726 11.1609 66.9526 13.1969 66.9526 16.5166ZM64.709 16.5166C64.709 14.392 63.6021 12.9903 61.897 12.9903C60.1918 12.9903 59.1148 14.4657 59.1148 16.5166C59.1148 18.5673 60.2366 20.0427 61.897 20.0427C63.5573 20.0427 64.709 18.6559 64.709 16.5166Z" fill="#14142B"/>
<path d="M78.664 16.5169C78.664 19.7774 76.899 21.8726 74.1768 21.8726C73.5014 21.9046 72.8304 21.7488 72.2406 21.4227C71.6508 21.0965 71.1659 20.6134 70.8411 20.0283V25.2364H68.6424V11.2644H70.7665V13.0054C71.1113 12.4246 71.6088 11.9466 72.2066 11.6219C72.8042 11.2972 73.4798 11.138 74.1618 11.1611C76.8841 11.1611 78.664 13.1972 78.664 16.5169ZM76.4204 16.5169C76.4204 14.3923 75.3136 12.9906 73.6084 12.9906C71.9032 12.9906 70.8262 14.466 70.8262 16.5169C70.8262 18.5676 71.9481 20.043 73.6084 20.043C75.2686 20.043 76.4204 18.6562 76.4204 16.5169Z" fill="#14142B"/>
<path d="M80.4286 7.36816H82.6123V21.7534H80.4286V7.36816Z" fill="#14142B"/>
<path d="M93.9803 18.67C93.7425 19.6623 93.1471 20.5358 92.3052 21.1274C91.4632 21.719 90.4318 21.9888 89.4032 21.8864C86.307 21.8864 84.3925 19.8355 84.3925 16.5602C84.3925 13.2847 86.322 11.1306 89.3135 11.1306C92.305 11.1306 94.1149 13.1962 94.1149 16.3093V17.047H86.6361V17.1798C86.6039 17.5653 86.6553 17.9531 86.7865 18.3175C86.9179 18.6819 87.1262 19.0147 87.3977 19.2937C87.6692 19.5727 87.9978 19.7916 88.3617 19.9359C88.7254 20.0801 89.1162 20.1466 89.5079 20.1306C90.0237 20.1797 90.5415 20.0625 90.9839 19.7964C91.4263 19.5303 91.7691 19.1299 91.961 18.6552L93.9803 18.67ZM86.6061 15.5421H91.9162C91.9369 15.1955 91.8846 14.8484 91.7623 14.5228C91.6401 14.1972 91.4506 13.9002 91.206 13.6506C90.9613 13.4008 90.6669 13.204 90.3411 13.0725C90.0153 12.9409 89.6654 12.8776 89.3135 12.8864C88.9581 12.8825 88.6055 12.9483 88.2762 13.0802C87.947 13.2121 87.6476 13.4073 87.3956 13.6545C87.1435 13.9018 86.944 14.196 86.8085 14.52C86.6729 14.8441 86.6041 15.1915 86.6061 15.5421Z" fill="#14142B"/>
<path d="M105.737 7.36896C106.375 7.33739 107.012 7.43778 107.608 7.66368C108.204 7.88958 108.745 8.23597 109.197 8.68062C109.65 9.12527 110.002 9.65841 110.234 10.2455C110.465 10.8327 110.568 11.4611 110.538 12.0902C110.566 12.7265 110.459 13.3616 110.223 13.9546C109.987 14.5475 109.628 15.0852 109.168 15.5327C108.709 15.9803 108.16 16.328 107.556 16.5534C106.951 16.7786 106.307 16.8767 105.662 16.841H102.536V21.7542H100.248V7.36896H105.737ZM102.536 14.9672H105.124C105.527 15.0208 105.936 14.9852 106.323 14.8632C106.71 14.7411 107.065 14.5356 107.361 14.2615C107.657 13.9875 107.888 13.6518 108.036 13.2787C108.186 12.9057 108.248 12.5048 108.22 12.105C108.248 11.7072 108.186 11.3081 108.038 10.9369C107.89 10.5656 107.66 10.2315 107.366 9.95879C107.071 9.68614 106.718 9.48172 106.332 9.36041C105.947 9.2391 105.54 9.20388 105.139 9.25745H102.536V14.9672Z" fill="#14142B"/>
<path d="M111.331 16.5159C111.331 13.211 113.305 11.1306 116.386 11.1306C119.468 11.1306 121.428 13.211 121.428 16.5159C121.428 19.8207 119.483 21.8864 116.386 21.8864C113.29 21.8864 111.331 19.8207 111.331 16.5159ZM119.199 16.5159C119.199 14.2437 118.152 12.9159 116.386 12.9159C114.622 12.9159 113.56 14.2585 113.56 16.5159C113.56 18.7732 114.607 20.1158 116.386 20.1158C118.166 20.1158 119.199 18.788 119.199 16.5159Z" fill="#14142B"/>
<path d="M122.968 16.5157C122.968 13.2698 124.779 11.16 127.456 11.16C128.131 11.1261 128.803 11.2813 129.393 11.6075C129.983 11.9338 130.468 12.418 130.791 13.0042V7.36816H132.975V21.7534H130.851V19.9681C130.526 20.57 130.034 21.0684 129.433 21.4054C128.832 21.7423 128.146 21.9039 127.456 21.8714C124.779 21.8714 122.968 19.7468 122.968 16.5157ZM125.197 16.5157C125.197 18.6698 126.304 20.0418 128.009 20.0418C129.715 20.0418 130.806 18.6402 130.806 16.5157C130.806 14.3911 129.684 12.9894 128.009 12.9894C126.334 12.9894 125.197 14.3763 125.197 16.5157Z" fill="#14142B"/>
<path d="M142.279 14.8796C142.182 14.3047 141.871 13.7867 141.405 13.4284C140.939 13.0703 140.355 12.8983 139.766 12.9468C138.091 12.9468 136.969 14.3337 136.969 16.5173C136.969 18.7008 138.091 20.0877 139.78 20.0877C140.36 20.1446 140.939 19.983 141.403 19.6353C141.867 19.2877 142.179 18.7798 142.279 18.214H144.372C144.241 19.2975 143.685 20.2876 142.825 20.9738C141.965 21.6598 140.867 21.9878 139.766 21.8877C136.774 21.8877 134.755 19.8369 134.755 16.5173C134.755 13.1977 136.729 11.132 139.751 11.132C140.862 11.041 141.966 11.3818 142.827 12.0818C143.687 12.7818 144.237 13.7858 144.357 14.8796H142.279Z" fill="#14142B"/>
<path d="M145.719 18.7744C145.719 16.9449 147.14 15.8236 149.667 15.6908L152.584 15.5285V14.6728C152.584 13.5072 151.806 12.8433 150.475 12.8433C149.985 12.7804 149.489 12.8954 149.079 13.167C148.669 13.4385 148.373 13.8478 148.247 14.3187H146.197C146.197 12.4301 148.052 11.0728 150.535 11.0728C153.018 11.0728 154.753 12.4449 154.753 14.5105V21.7547H152.599V20.0285C152.262 20.6137 151.772 21.0989 151.18 21.4337C150.588 21.7684 149.916 21.9404 149.233 21.9317C148.788 21.9728 148.339 21.9217 147.915 21.7817C147.49 21.6417 147.1 21.416 146.77 21.1188C146.439 20.8216 146.174 20.4596 145.993 20.0559C145.812 19.6522 145.719 19.2158 145.719 18.7744ZM152.584 17.8302V17.0187L149.966 17.181C148.651 17.2547 147.918 17.8154 147.918 18.6564C147.918 19.4973 148.68 20.1318 149.862 20.1318C150.195 20.158 150.53 20.1192 150.847 20.0178C151.165 19.9163 151.46 19.7541 151.714 19.5403C151.968 19.3266 152.177 19.0655 152.329 18.7721C152.481 18.4786 152.573 18.1586 152.599 17.8302H152.584Z" fill="#14142B"/>
<path d="M160.841 11.1448C163.204 11.1448 164.894 12.4284 164.939 14.2874H162.89C162.8 13.3579 162.008 12.812 160.781 12.812C159.554 12.812 158.821 13.3432 158.821 14.1546C158.821 14.9661 159.345 15.2022 160.437 15.4825L162.231 15.8809C164.371 16.3972 165.223 17.1792 165.223 18.7137C165.223 20.6022 163.414 21.9005 160.736 21.9005C158.058 21.9005 156.547 20.6316 156.383 18.7137H158.582C158.746 19.7316 159.554 20.2628 160.886 20.2628C162.216 20.2628 163.01 19.7316 163.01 18.9054C163.01 18.0793 162.605 17.9022 161.514 17.6218L159.615 17.1644C157.699 16.7071 156.727 15.689 156.727 14.2874C156.683 12.4137 158.372 11.1448 160.841 11.1448Z" fill="#14142B"/>
<path d="M169.936 8.77002V11.2488H171.955V12.9602H169.936V18.7438C169.936 19.6438 170.339 20.0569 171.222 20.0569H171.94V21.7536C171.54 21.8226 171.134 21.8522 170.728 21.8422C168.574 21.8422 167.737 21.0455 167.737 19.0094V12.975H166.241V11.2635H167.737V8.77002H169.936Z" fill="#14142B"/>
<path d="M177.818 11.1448C180.182 11.1448 181.871 12.4284 181.916 14.2874H179.867C179.778 13.3579 178.985 12.812 177.758 12.812C176.531 12.812 175.798 13.3432 175.798 14.1546C175.798 14.9661 176.323 15.2022 177.415 15.4825L179.209 15.8809C181.348 16.3972 182.2 17.1792 182.2 18.7137C182.2 20.6022 180.39 21.9005 177.788 21.9005C175.186 21.9005 173.54 20.5727 173.391 18.6989H175.545C175.709 19.7169 176.517 20.248 177.848 20.248C179.179 20.248 179.972 19.7169 179.972 18.8906C179.972 18.0645 179.568 17.8874 178.476 17.6071L176.531 17.1498C174.617 16.6923 173.645 15.6744 173.645 14.2727C173.66 12.4137 175.35 11.1448 177.818 11.1448Z" fill="#14142B"/>
<path d="M31.7458 27.6774C31.2869 28.7543 30.5601 29.6996 29.6325 30.4258C28.9545 30.9515 28.1831 31.3476 27.3577 31.5942C26.076 31.8995 24.7586 32.0335 23.4407 31.9925H8.91679C7.60334 32.0344 6.2902 31.9004 5.01324 31.5942C4.17794 31.352 3.39686 30.9554 2.71149 30.4258C1.81108 29.7209 1.09938 28.8092 0.638574 27.7703C0.141756 26.2817 -0.0682538 24.7146 0.0193896 23.1498V8.78379C-0.052211 7.24913 0.16222 5.71454 0.652034 4.25622C1.10526 3.20921 1.8125 2.28817 2.71149 1.5742C3.39283 1.04603 4.16921 0.649608 4.99978 0.405802C6.27673 0.0996055 7.58988 -0.0343881 8.90334 0.00748285H23.4811C24.7989 -0.0334759 26.1164 0.100497 27.3981 0.405802C28.2092 0.656827 28.9667 1.05288 29.6325 1.5742C30.533 2.27914 31.2446 3.19084 31.7054 4.22967C32.194 5.69723 32.4039 7.2411 32.3247 8.78379V23.1498C32.4136 24.6812 32.2174 26.2157 31.7458 27.6774Z" fill="url(#paint0_linear_712_8474)"/>
<path d="M18.6358 18.6642C18.2824 18.3435 17.8673 18.096 17.4151 17.9363C16.9629 17.7766 16.4828 17.7081 16.0033 17.7347C15.5287 17.7121 15.0543 17.7825 14.6075 17.9422C14.1607 18.1017 13.7505 18.3471 13.4007 18.6642C13.1224 18.9359 12.9525 19.2972 12.922 19.6822C12.8276 20.5749 12.8276 21.4749 12.922 22.3675C13.0118 23.4593 13.1912 24.9052 13.4306 26.3806C13.5245 27.0628 13.6644 27.7381 13.8494 28.4019C14.0154 28.8042 14.3093 29.1425 14.6869 29.366C15.0645 29.5895 15.5054 29.6861 15.9435 29.6413C16.3836 29.687 16.8267 29.591 17.2069 29.3676C17.5871 29.1442 17.8837 28.8054 18.0525 28.4019C18.2375 27.7381 18.3773 27.0628 18.4713 26.3806C18.6957 24.9052 18.8752 23.4298 18.9649 22.3675C19.0593 21.4749 19.0593 20.5749 18.9649 19.6822C18.976 19.3159 18.8599 18.9567 18.6358 18.6642ZM13.1015 13.6627C13.1015 14.2462 13.277 14.8168 13.6056 15.302C13.9344 15.7873 14.4016 16.1655 14.9483 16.3888C15.4948 16.6122 16.0963 16.6706 16.6766 16.5567C17.257 16.4429 17.79 16.1619 18.2084 15.7491C18.6267 15.3365 18.9116 14.8107 19.0271 14.2383C19.1426 13.6659 19.0833 13.0726 18.8568 12.5335C18.6304 11.9942 18.247 11.5333 17.755 11.2091C17.2631 10.8849 16.6847 10.7119 16.093 10.7119C15.2996 10.7119 14.5387 11.0227 13.9777 11.5761C13.4167 12.1295 13.1015 12.88 13.1015 13.6627ZM16.0033 2.19875C13.0218 2.21227 10.1408 3.26382 7.86851 5.16797C5.59622 7.07212 4.07856 9.70655 3.58317 12.6067C3.08778 15.5068 3.64649 18.4863 5.16076 21.0198C6.67502 23.5533 9.04759 25.4779 11.86 26.4544C11.8883 26.4618 11.9181 26.4623 11.9465 26.4558C11.9751 26.4493 12.0016 26.4359 12.0237 26.4171C12.0458 26.3981 12.063 26.3742 12.0735 26.3473C12.0841 26.3203 12.0878 26.2913 12.0844 26.2626C12.0096 25.8347 11.9498 25.4069 11.8899 24.9938C11.884 24.9193 11.857 24.8481 11.8121 24.7881C11.7672 24.7281 11.706 24.6818 11.6356 24.6544C9.31881 23.6399 7.42643 21.8698 6.27659 19.6414C5.12676 17.413 4.78948 14.8621 5.32142 12.4174C5.85338 9.97272 7.22213 7.78305 9.19779 6.21635C11.1733 4.64965 13.6354 3.80137 16.1703 3.81404C18.7052 3.82672 21.1584 4.69956 23.1179 6.28593C25.0772 7.8723 26.4234 10.0756 26.9302 12.5255C27.4371 14.9754 27.0736 17.5227 25.9009 19.7395C24.7282 21.9563 22.8178 23.7074 20.4906 24.6987C20.4202 24.7261 20.3591 24.7724 20.3142 24.8323C20.2692 24.8924 20.2423 24.9636 20.2363 25.038C20.2363 25.4511 20.1166 25.879 20.0418 26.3069C20.0384 26.3355 20.0421 26.3646 20.0528 26.3916C20.0633 26.4185 20.0804 26.4424 20.1026 26.4613C20.1247 26.4802 20.1511 26.4935 20.1797 26.5C20.2082 26.5066 20.238 26.5061 20.2662 26.4986C23.1217 25.5425 25.5371 23.6119 27.0775 21.0548C28.6178 18.4975 29.1816 15.4819 28.6674 12.5509C28.1533 9.61996 26.5948 6.96652 24.273 5.06854C21.9512 3.17055 19.0184 2.15285 16.0033 2.19875ZM15.779 7.92327C17.175 7.86917 18.5544 8.23733 19.7323 8.97847C20.9101 9.71962 21.8302 10.7983 22.3689 12.0698C22.9076 13.3412 23.0394 14.7449 22.7464 16.0923C22.4535 17.4398 21.7498 18.6667 20.7299 19.6085C20.6761 19.6632 20.6339 19.7278 20.6056 19.7988C20.5773 19.8697 20.5637 19.9454 20.5654 20.0216C20.5976 20.5129 20.5976 21.0057 20.5654 21.497C20.5664 21.5276 20.5754 21.5574 20.5916 21.5835C20.6077 21.6097 20.6305 21.6312 20.6576 21.6461C20.6847 21.661 20.7153 21.6686 20.7463 21.6683C20.7774 21.668 20.8078 21.6599 20.8346 21.6446C22.3337 20.6383 23.4664 19.1845 24.0664 17.4966C24.6663 15.8088 24.7021 13.9756 24.1684 12.2662C23.6346 10.5568 22.5595 9.06118 21.1007 7.99879C19.642 6.93634 17.8764 6.36305 16.0631 6.36305C14.2498 6.36305 12.4843 6.93634 11.0255 7.99879C9.56676 9.06118 8.49162 10.5568 7.95786 12.2662C7.42412 13.9756 7.45988 15.8088 8.05988 17.4966C8.65987 19.1845 9.79256 20.6383 11.2916 21.6446C11.3173 21.6612 11.3472 21.6703 11.3778 21.671C11.4085 21.6718 11.4388 21.664 11.4653 21.6487C11.4916 21.6333 11.5133 21.6111 11.5275 21.5842C11.5418 21.5574 11.5482 21.5272 11.5459 21.497C11.5459 20.9954 11.5459 20.538 11.5459 20.0216C11.5536 19.9448 11.5428 19.8673 11.5141 19.7955C11.4855 19.7236 11.44 19.6596 11.3814 19.6085C10.3984 18.6902 9.71255 17.5058 9.41015 16.2041C9.10775 14.9024 9.2023 13.5415 9.68187 12.2926C10.1614 11.0438 11.0047 9.96264 12.1055 9.18518C13.2063 8.40782 14.5155 7.96876 15.8687 7.92327H15.779Z" fill="white"/>
</g>
<defs>
<linearGradient id="paint0_linear_712_8474" x1="16.199" y1="0.00748285" x2="16.199" y2="31.9261" gradientUnits="userSpaceOnUse">
<stop stop-color="#F452FF"/>
<stop offset="1" stop-color="#832BC1"/>
</linearGradient>
<clipPath id="clip0_712_8474">
<rect width="182.746" height="32" fill="white"/>
</clipPath>
</defs>
</svg>
