<svg width="128" height="32" viewBox="0 0 128 32" fill="none" xmlns="http://www.w3.org/2000/svg">
<g clip-path="url(#clip0_709_5049)">
<path d="M125.506 15.5088C125.226 15.5106 124.948 15.4572 124.688 15.3515C124.428 15.2459 124.192 15.0901 123.994 14.8933C123.795 14.6966 123.639 14.4626 123.532 14.2051C123.425 13.9477 123.371 13.6718 123.373 13.3935C123.373 12.8288 123.6 12.2872 124.003 11.8879C124.405 11.4886 124.951 11.2642 125.52 11.2642C125.801 11.2624 126.079 11.3158 126.339 11.4214C126.598 11.5271 126.835 11.6828 127.033 11.8796C127.232 12.0764 127.388 12.3103 127.495 12.5678C127.602 12.8253 127.655 13.1012 127.653 13.3795C127.653 13.9442 127.427 14.4858 127.024 14.885C126.622 15.2844 126.076 15.5088 125.506 15.5088ZM125.506 11.4744C125.123 11.4716 124.747 11.5822 124.426 11.792C124.105 12.0018 123.855 12.3013 123.707 12.6526C123.559 13.0038 123.519 13.3909 123.594 13.7644C123.668 14.138 123.852 14.4812 124.124 14.7505C124.396 15.0197 124.742 15.2028 125.119 15.2763C125.494 15.3499 125.885 15.3107 126.239 15.1638C126.593 15.0168 126.896 14.7686 127.107 14.451C127.318 14.1332 127.43 13.7602 127.427 13.3795C127.429 13.13 127.381 12.8826 127.287 12.6515C127.191 12.4205 127.051 12.2103 126.874 12.0332C126.696 11.8561 126.486 11.7155 126.253 11.6197C126.021 11.5237 125.772 11.4744 125.52 11.4744H125.506ZM125.986 13.6036L126.579 14.4441H126.071L125.534 13.6736H125.069V14.4441H124.631V12.2167H125.633C126.156 12.2167 126.51 12.4829 126.51 12.9172C126.513 13.0711 126.464 13.2218 126.372 13.3459C126.28 13.47 126.15 13.5606 126.001 13.6036H125.986ZM125.619 12.5951H125.069V13.2954H125.619C125.901 13.2954 126.071 13.1694 126.071 12.9452C126.071 12.7211 125.916 12.5951 125.633 12.5951H125.619Z" fill="#14142B"/>
<path d="M107.158 11.3066V10.8863C107.158 9.65357 107.624 9.10726 108.684 9.10726C109.272 9.11401 109.856 9.22305 110.407 9.42944C110.438 9.44336 110.472 9.45056 110.506 9.45056C110.54 9.45056 110.574 9.44336 110.605 9.42944C110.633 9.40769 110.655 9.37992 110.669 9.34831C110.684 9.3167 110.691 9.28213 110.69 9.24733V6.68384C110.691 6.63476 110.679 6.58623 110.65 6.54573C110.622 6.50523 110.581 6.47501 110.534 6.45971C109.709 6.24457 108.858 6.15019 108.006 6.17955C105.181 6.17955 103.769 7.74846 103.769 10.7042V11.3486H102.356C102.3 11.3486 102.246 11.3707 102.206 11.4101C102.166 11.4495 102.144 11.5029 102.144 11.5587V14.1642C102.144 14.2213 102.166 14.2762 102.205 14.318C102.245 14.3596 102.299 14.3848 102.356 14.3883H103.769V24.7263C103.769 24.7821 103.791 24.8356 103.831 24.875C103.87 24.9144 103.924 24.9365 103.98 24.9365H106.961C107.018 24.9366 107.074 24.9149 107.115 24.8759C107.157 24.8367 107.183 24.7834 107.186 24.7263V14.3182H110.011L114.362 24.6423C113.868 25.7349 113.373 25.945 112.709 25.945C112.124 25.9293 111.551 25.7705 111.043 25.4828C111.014 25.4692 110.983 25.4621 110.951 25.4621C110.919 25.4621 110.888 25.4692 110.859 25.4828C110.831 25.4909 110.805 25.5052 110.782 25.5246C110.76 25.544 110.743 25.568 110.732 25.5949L109.786 27.8222C109.765 27.8728 109.763 27.9292 109.781 27.9808C109.8 28.0324 109.836 28.0756 109.885 28.1023C110.872 28.6639 111.995 28.9495 113.133 28.9288C115.365 28.9288 116.608 27.8922 117.71 25.1045L122.978 11.6007C122.995 11.5684 123.004 11.5322 123.004 11.4956C123.004 11.459 122.995 11.4229 122.978 11.3906C122.956 11.3633 122.928 11.3416 122.897 11.327C122.865 11.3125 122.83 11.3055 122.795 11.3066H119.546C119.501 11.3094 119.458 11.3237 119.421 11.3484C119.383 11.3729 119.353 11.4068 119.333 11.4466L116.099 20.6219L112.61 11.4466C112.593 11.4048 112.564 11.3691 112.526 11.3442C112.489 11.3191 112.444 11.3061 112.399 11.3066H107.158Z" fill="#14142B"/>
<path d="M100.407 11.2925H97.3701C97.2453 11.2925 97.1441 11.3928 97.1441 11.5166V24.6562C97.1441 24.78 97.2453 24.8804 97.3701 24.8804H100.407C100.532 24.8804 100.633 24.78 100.633 24.6562V11.5166C100.633 11.3928 100.532 11.2925 100.407 11.2925Z" fill="#14142B"/>
<path d="M98.9024 5.93461C98.4825 5.93193 98.0707 6.05298 97.7205 6.28242C97.37 6.51186 97.0962 6.83935 96.9335 7.22338C96.771 7.6074 96.727 8.03067 96.8073 8.43949C96.8876 8.84833 97.0884 9.22431 97.3844 9.51978C97.6805 9.81525 98.0587 10.0169 98.4696 10.0991C98.8814 10.1814 99.3082 10.1405 99.6972 9.98178C100.085 9.82301 100.417 9.55348 100.651 9.20736C100.885 8.86124 101.01 8.45411 101.01 8.03761C101.011 7.76208 100.958 7.48892 100.853 7.23385C100.747 6.97878 100.593 6.74684 100.397 6.55138C100.201 6.35593 99.9684 6.2008 99.7121 6.09495C99.4548 5.98911 99.1806 5.93461 98.9024 5.93461Z" fill="#14142B"/>
<path d="M95.5057 11.2923H92.1582V7.90235C92.1583 7.84527 92.1365 7.79028 92.0971 7.74863C92.0577 7.70697 92.0037 7.68179 91.9463 7.67822H88.9095C88.8496 7.67822 88.7921 7.70184 88.7497 7.74388C88.7073 7.78591 88.6836 7.84291 88.6836 7.90235V11.2923H87.1863C87.1585 11.2923 87.1309 11.2977 87.1053 11.3083C87.0795 11.3189 87.0562 11.3343 87.0366 11.3539C87.0168 11.3733 87.0012 11.3966 86.9906 11.422C86.9799 11.4476 86.9744 11.4749 86.9744 11.5024V14.094C86.9743 14.1511 86.9962 14.206 87.0356 14.2477C87.0749 14.2893 87.1289 14.3145 87.1863 14.3181H88.5988V21.014C88.5988 23.7175 90.0113 25.0904 92.6385 25.0904C93.627 25.1181 94.6042 24.8758 95.4634 24.3899C95.4979 24.3737 95.5271 24.3478 95.5471 24.3155C95.5671 24.2832 95.5773 24.2458 95.5764 24.2079V21.7424C95.5769 21.7043 95.5682 21.6666 95.5511 21.6324C95.5338 21.5982 95.5086 21.5687 95.4775 21.5463C95.4437 21.5251 95.4045 21.5139 95.3645 21.5139C95.3245 21.5139 95.2853 21.5251 95.2515 21.5463C94.7 21.8234 94.0901 21.9674 93.4718 21.9666C92.4972 21.9666 92.0593 21.5323 92.0593 20.5657V14.3181H95.4069C95.4668 14.3181 95.5243 14.2944 95.5666 14.2524C95.609 14.2104 95.6329 14.1534 95.6329 14.094V11.5024C95.6346 11.4589 95.6234 11.4159 95.6009 11.3786C95.5783 11.3413 95.5452 11.3113 95.5057 11.2923Z" fill="#14142B"/>
<path d="M79.4879 11.0121C78.0765 11.0372 76.7041 11.4761 75.5439 12.2737C74.3837 13.0713 73.4876 14.1918 72.9687 15.4938C72.4499 16.7959 72.3314 18.2212 72.6283 19.5899C72.9253 20.9586 73.6242 22.2095 74.637 23.1847C75.6499 24.16 76.9312 24.8158 78.3196 25.0697C79.7078 25.3236 81.1408 25.1641 82.4378 24.6112C83.7348 24.0584 84.8376 23.137 85.6072 21.9633C86.3768 20.7896 86.7786 19.4161 86.7622 18.0162C86.7493 17.0823 86.5508 16.1601 86.178 15.3025C85.8054 14.4447 85.2657 13.6683 84.59 13.0178C83.9143 12.3672 83.1158 11.8551 82.2404 11.511C81.3649 11.1669 80.4296 10.9974 79.4879 11.0121ZM79.4879 22.1206C78.9662 22.1138 78.4511 22.0025 77.9738 21.7932C77.4965 21.584 77.0668 21.2812 76.7106 20.903C76.3543 20.5248 76.0789 20.0791 75.9008 19.5926C75.7227 19.1062 75.6457 18.589 75.6743 18.0722C75.6415 17.5626 75.7143 17.0517 75.8882 16.5711C76.0621 16.0903 76.3334 15.65 76.6854 15.2773C77.0374 14.9046 77.4626 14.6073 77.9349 14.4038C78.4072 14.2003 78.9165 14.0948 79.4315 14.0939C79.955 14.0971 80.4725 14.2053 80.9528 14.4119C81.4331 14.6184 81.8664 14.9191 82.2266 15.296C82.5868 15.6728 82.8664 16.1179 83.0487 16.6047C83.231 17.0914 83.3123 17.6096 83.2875 18.1283C83.3205 18.6422 83.2465 19.1572 83.0702 19.6415C82.8939 20.1257 82.6189 20.5689 82.2626 20.9433C81.9062 21.3178 81.476 21.6155 80.9986 21.818C80.5213 22.0206 80.0071 22.1236 79.4879 22.1206Z" fill="#14142B"/>
<path d="M64.8408 11.0123C64.025 11.0073 63.2188 11.1878 62.4843 11.5399C61.7497 11.892 61.1063 12.4063 60.6035 13.0435V11.5026C60.5998 11.4456 60.5745 11.3921 60.5325 11.3531C60.4905 11.3141 60.4351 11.2923 60.3774 11.2924H57.3124C57.2548 11.2923 57.1994 11.3141 57.1574 11.3531C57.1154 11.3921 57.09 11.4456 57.0864 11.5026V28.5926C57.0864 28.6519 57.1102 28.709 57.1526 28.751C57.195 28.7931 57.2525 28.8167 57.3124 28.8167H60.3492C60.4091 28.8167 60.4667 28.7931 60.5091 28.751C60.5514 28.709 60.5752 28.6519 60.5752 28.5926V23.2274C61.0947 23.8378 61.7441 24.3266 62.4768 24.6584C63.2095 24.9902 64.0072 25.1569 64.8126 25.1465C67.9907 25.1465 71.2111 22.7232 71.2111 18.0724C71.2111 13.4217 68.0189 11.0123 64.8408 11.0123ZM67.6658 18.0164C67.7186 18.5173 67.6662 19.0236 67.5117 19.5035C67.3571 19.9833 67.104 20.4261 66.7682 20.8039C66.4323 21.1817 66.0211 21.4863 65.5605 21.6986C65.0999 21.9108 64.6 22.0259 64.0922 22.0367C63.5831 22.0211 63.0824 21.9034 62.6204 21.6906C62.1584 21.4778 61.7445 21.1745 61.404 20.7987C61.0634 20.423 60.8031 19.9829 60.6389 19.5046C60.4745 19.0264 60.4096 18.5201 60.4481 18.0164C60.4116 17.5137 60.478 17.009 60.6433 16.5324C60.8084 16.0559 61.0691 15.6173 61.4095 15.2432C61.7498 14.869 62.1629 14.5669 62.6239 14.355C63.0849 14.1431 63.5844 14.0258 64.0922 14.0101C64.6062 14.0188 65.1127 14.1336 65.5795 14.3473C66.0462 14.5609 66.4629 14.8686 66.8031 15.2508C67.1432 15.633 67.3994 16.0813 67.5553 16.5671C67.7111 17.0529 67.7632 17.5656 67.7081 18.0724L67.6658 18.0164Z" fill="#14142B"/>
<path d="M50.0949 14.3322C46.7049 13.5198 46.0976 12.9314 46.0976 11.7828C46.0976 10.6341 47.157 9.90564 48.739 9.90564C50.4353 9.96872 52.0634 10.5841 53.3718 11.6567C53.398 11.6701 53.427 11.6772 53.4566 11.6772C53.4861 11.6772 53.5152 11.6701 53.5413 11.6567C53.597 11.646 53.6469 11.6163 53.6825 11.5726L55.3493 9.24726C55.3825 9.20531 55.4006 9.15351 55.4006 9.10017C55.4006 9.04683 55.3825 8.99504 55.3493 8.95309C53.5115 7.46119 51.1982 6.66668 48.8236 6.71178C45.1654 6.71178 42.6088 8.89705 42.6088 12.0068C42.6088 15.3548 44.8123 16.5455 48.6259 17.456C51.8747 18.1985 52.4255 18.8568 52.4255 19.9355C52.4255 21.0141 51.3096 21.9247 49.6006 21.9247C47.5802 21.9108 45.6448 21.1169 44.2049 19.7113C44.1499 19.6931 44.0904 19.6931 44.0354 19.7113C43.977 19.7253 43.9234 19.7542 43.8801 19.7954L41.9873 21.9667C41.9476 22.0083 41.9254 22.0634 41.9254 22.1207C41.9254 22.1781 41.9476 22.2332 41.9873 22.2748C44.0434 24.1014 46.7132 25.1005 49.4734 25.0765C53.4142 25.0765 55.9708 22.9332 55.9708 19.6273C55.9143 16.8677 54.2193 15.3268 50.0949 14.3322Z" fill="#14142B"/>
<path d="M16.1331 0C12.9423 0 9.82308 0.938387 7.17004 2.69648C4.51696 4.45459 2.44914 6.95344 1.22807 9.87704C0.00698993 12.8007 -0.312499 16.0178 0.31 19.1214C0.932501 22.2251 2.46902 25.0761 4.72528 27.3137C6.98153 29.5514 9.85617 31.0752 12.9857 31.6926C16.1152 32.3099 19.359 31.9931 22.307 30.7821C25.2549 29.5711 27.7745 27.5203 29.5472 24.8891C31.32 22.258 32.2662 19.1645 32.2662 16C32.2662 11.7565 30.5664 7.68688 27.5409 4.6863C24.5153 1.68571 20.4118 0 16.1331 0ZM23.5366 23.0743C23.4679 23.1873 23.3772 23.2857 23.27 23.3637C23.1626 23.4418 23.0407 23.4978 22.9113 23.5287C22.7819 23.5596 22.6476 23.5647 22.5163 23.5436C22.3849 23.5226 22.259 23.476 22.146 23.4062C18.3606 21.1077 13.5966 20.5969 7.98287 21.8611C7.85516 21.8914 7.72268 21.8961 7.59311 21.8752C7.46354 21.8542 7.33945 21.8079 7.22805 21.7391C7.11666 21.6701 7.02017 21.58 6.94419 21.4738C6.8682 21.3677 6.81424 21.2475 6.78543 21.1205C6.75482 20.9931 6.74986 20.8608 6.77084 20.7315C6.79182 20.6021 6.83833 20.4782 6.9077 20.3667C6.97707 20.2552 7.06794 20.1583 7.1751 20.0817C7.28227 20.0051 7.40363 19.9502 7.53222 19.9202C13.6739 18.5283 18.9528 19.1285 23.2018 21.7079C23.4285 21.8454 23.591 22.0664 23.6537 22.3225C23.7166 22.5785 23.6744 22.8489 23.5366 23.0743ZM25.5066 18.7199C25.3266 18.9944 25.0472 19.1898 24.7261 19.2658C24.4051 19.3419 24.0667 19.2927 23.7812 19.1285C18.8856 16.4201 13.1063 15.7496 7.71247 17.2642C7.54464 17.357 7.35798 17.4114 7.1662 17.4233C6.97442 17.4352 6.78239 17.4043 6.60416 17.3331C6.42594 17.2619 6.26606 17.152 6.13625 17.0115C6.00644 16.871 5.90998 16.7035 5.85395 16.5211C5.79793 16.3389 5.78375 16.1464 5.81247 15.958C5.84119 15.7696 5.91206 15.5899 6.0199 15.4322C6.12774 15.2744 6.26982 15.1426 6.43571 15.0464C6.60159 14.9503 6.78708 14.8921 6.97857 14.8763C9.98916 14.0168 13.1426 13.7627 16.2536 14.1289C19.3646 14.495 22.3705 15.4742 25.0945 17.0088C25.3713 17.1873 25.5684 17.4643 25.645 17.7828C25.7217 18.1011 25.6721 18.4366 25.5066 18.7199ZM25.6739 14.1868C20.5237 11.1221 11.9099 10.8412 6.93994 12.3352C6.55748 12.4503 6.14457 12.4101 5.79203 12.2233C5.43949 12.0365 5.17622 11.7185 5.0601 11.3392C4.944 10.9599 4.98459 10.5504 5.17292 10.2007C5.36127 9.85113 5.68194 9.59003 6.0644 9.4749C11.7682 7.76377 21.2318 8.09577 27.219 11.6074C27.5268 11.8258 27.7404 12.1512 27.8173 12.5187C27.8942 12.8863 27.8288 13.2691 27.6341 13.591C27.4393 13.9128 27.1296 14.1503 26.7663 14.2559C26.4031 14.3615 26.0131 14.3278 25.6739 14.1612V14.1868Z" fill="#1DD75F"/>
</g>
<defs>
<clipPath id="clip0_709_5049">
<rect width="127.822" height="32" fill="white"/>
</clipPath>
</defs>
</svg>
